<mxfile host="app.diagrams.net" agent="Mozilla/5.0 (Windows NT 10.0; Win64; x64) AppleWebKit/537.36 (KHTML, like Gecko) Chrome/135.0.0.0 Safari/537.36" version="26.2.9">
  <diagram name="Страница — 1" id="yPW0HhuuNhpBuYm1yf4C">
    <mxGraphModel grid="1" page="1" gridSize="10" guides="1" tooltips="1" connect="1" arrows="1" fold="1" pageScale="1" pageWidth="827" pageHeight="1169" math="0" shadow="0">
      <root>
        <mxCell id="0" />
        <mxCell id="1" parent="0" />
        <mxCell id="bN-MxPjGURFgGuSvR1dv-1" value="Користувач" style="shape=umlActor;verticalLabelPosition=bottom;verticalAlign=top;html=1;outlineConnect=0;" vertex="1" parent="1">
          <mxGeometry x="110" y="50" width="30" height="60" as="geometry" />
        </mxCell>
        <mxCell id="bN-MxPjGURFgGuSvR1dv-3" value="Веб-інтерфейс" style="rounded=0;whiteSpace=wrap;html=1;" vertex="1" parent="1">
          <mxGeometry x="240" y="60" width="120" height="60" as="geometry" />
        </mxCell>
        <mxCell id="bN-MxPjGURFgGuSvR1dv-4" value="Система" style="rounded=0;whiteSpace=wrap;html=1;" vertex="1" parent="1">
          <mxGeometry x="400" y="60" width="120" height="60" as="geometry" />
        </mxCell>
        <mxCell id="bN-MxPjGURFgGuSvR1dv-5" value="База даних" style="rounded=0;whiteSpace=wrap;html=1;" vertex="1" parent="1">
          <mxGeometry x="560" y="60" width="120" height="60" as="geometry" />
        </mxCell>
        <mxCell id="bN-MxPjGURFgGuSvR1dv-6" value="" style="endArrow=none;dashed=1;html=1;dashPattern=1 3;strokeWidth=2;rounded=0;entryX=0.5;entryY=1;entryDx=0;entryDy=0;" edge="1" parent="1" source="bN-MxPjGURFgGuSvR1dv-14" target="bN-MxPjGURFgGuSvR1dv-4">
          <mxGeometry width="50" height="50" relative="1" as="geometry">
            <mxPoint x="460" y="560" as="sourcePoint" />
            <mxPoint x="440" y="160" as="targetPoint" />
          </mxGeometry>
        </mxCell>
        <mxCell id="bN-MxPjGURFgGuSvR1dv-7" value="" style="endArrow=none;dashed=1;html=1;dashPattern=1 3;strokeWidth=2;rounded=0;entryX=0.5;entryY=1;entryDx=0;entryDy=0;" edge="1" parent="1" source="bN-MxPjGURFgGuSvR1dv-18">
          <mxGeometry width="50" height="50" relative="1" as="geometry">
            <mxPoint x="621.5" y="556" as="sourcePoint" />
            <mxPoint x="621.5" y="116" as="targetPoint" />
          </mxGeometry>
        </mxCell>
        <mxCell id="bN-MxPjGURFgGuSvR1dv-8" value="" style="endArrow=none;dashed=1;html=1;dashPattern=1 3;strokeWidth=2;rounded=0;entryX=0.5;entryY=1;entryDx=0;entryDy=0;" edge="1" parent="1" source="bN-MxPjGURFgGuSvR1dv-11">
          <mxGeometry width="50" height="50" relative="1" as="geometry">
            <mxPoint x="299.5" y="560" as="sourcePoint" />
            <mxPoint x="299.5" y="120" as="targetPoint" />
          </mxGeometry>
        </mxCell>
        <mxCell id="bN-MxPjGURFgGuSvR1dv-9" value="" style="endArrow=none;dashed=1;html=1;dashPattern=1 3;strokeWidth=2;rounded=0;entryX=0.5;entryY=1;entryDx=0;entryDy=0;" edge="1" parent="1" source="Yx5rPOhtdr6v1IMibFze-1">
          <mxGeometry width="50" height="50" relative="1" as="geometry">
            <mxPoint x="125" y="560" as="sourcePoint" />
            <mxPoint x="124.5" y="120" as="targetPoint" />
          </mxGeometry>
        </mxCell>
        <mxCell id="bN-MxPjGURFgGuSvR1dv-12" value="" style="endArrow=none;dashed=1;html=1;dashPattern=1 3;strokeWidth=2;rounded=0;entryX=0.5;entryY=1;entryDx=0;entryDy=0;" edge="1" parent="1" target="bN-MxPjGURFgGuSvR1dv-11" source="Yx5rPOhtdr6v1IMibFze-3">
          <mxGeometry width="50" height="50" relative="1" as="geometry">
            <mxPoint x="299.5" y="560" as="sourcePoint" />
            <mxPoint x="299.5" y="120" as="targetPoint" />
          </mxGeometry>
        </mxCell>
        <mxCell id="bN-MxPjGURFgGuSvR1dv-11" value="" style="rounded=1;whiteSpace=wrap;html=1;" vertex="1" parent="1">
          <mxGeometry x="292.5" y="141" width="15" height="79" as="geometry" />
        </mxCell>
        <mxCell id="bN-MxPjGURFgGuSvR1dv-13" value="Вхід в додаток" style="endArrow=classic;html=1;rounded=0;" edge="1" parent="1">
          <mxGeometry width="50" height="50" relative="1" as="geometry">
            <mxPoint x="130" y="160" as="sourcePoint" />
            <mxPoint x="290" y="160" as="targetPoint" />
          </mxGeometry>
        </mxCell>
        <mxCell id="bN-MxPjGURFgGuSvR1dv-15" value="" style="endArrow=none;dashed=1;html=1;dashPattern=1 3;strokeWidth=2;rounded=0;entryX=0.5;entryY=1;entryDx=0;entryDy=0;" edge="1" parent="1" source="bN-MxPjGURFgGuSvR1dv-24" target="bN-MxPjGURFgGuSvR1dv-14">
          <mxGeometry width="50" height="50" relative="1" as="geometry">
            <mxPoint x="460" y="560" as="sourcePoint" />
            <mxPoint x="460" y="120" as="targetPoint" />
          </mxGeometry>
        </mxCell>
        <mxCell id="bN-MxPjGURFgGuSvR1dv-14" value="" style="rounded=1;whiteSpace=wrap;html=1;" vertex="1" parent="1">
          <mxGeometry x="450" y="141" width="20" height="79" as="geometry" />
        </mxCell>
        <mxCell id="bN-MxPjGURFgGuSvR1dv-16" value="Запит на авторизацію" style="endArrow=classic;html=1;rounded=0;exitX=0.967;exitY=0.25;exitDx=0;exitDy=0;exitPerimeter=0;entryX=0;entryY=0.25;entryDx=0;entryDy=0;" edge="1" parent="1" source="bN-MxPjGURFgGuSvR1dv-11" target="bN-MxPjGURFgGuSvR1dv-14">
          <mxGeometry width="50" height="50" relative="1" as="geometry">
            <mxPoint x="390" y="210" as="sourcePoint" />
            <mxPoint x="440" y="160" as="targetPoint" />
          </mxGeometry>
        </mxCell>
        <mxCell id="bN-MxPjGURFgGuSvR1dv-17" value="Запит на витяг даних" style="endArrow=classic;html=1;rounded=0;entryX=0;entryY=0.25;entryDx=0;entryDy=0;" edge="1" parent="1" target="bN-MxPjGURFgGuSvR1dv-18">
          <mxGeometry width="50" height="50" relative="1" as="geometry">
            <mxPoint x="470" y="160" as="sourcePoint" />
            <mxPoint x="520" y="110" as="targetPoint" />
          </mxGeometry>
        </mxCell>
        <mxCell id="bN-MxPjGURFgGuSvR1dv-19" value="" style="endArrow=none;dashed=1;html=1;dashPattern=1 3;strokeWidth=2;rounded=0;entryX=0.5;entryY=1;entryDx=0;entryDy=0;" edge="1" parent="1" source="bN-MxPjGURFgGuSvR1dv-27" target="bN-MxPjGURFgGuSvR1dv-18">
          <mxGeometry width="50" height="50" relative="1" as="geometry">
            <mxPoint x="621.5" y="556" as="sourcePoint" />
            <mxPoint x="621.5" y="116" as="targetPoint" />
          </mxGeometry>
        </mxCell>
        <mxCell id="bN-MxPjGURFgGuSvR1dv-18" value="" style="rounded=1;whiteSpace=wrap;html=1;" vertex="1" parent="1">
          <mxGeometry x="610" y="141" width="20" height="79" as="geometry" />
        </mxCell>
        <mxCell id="bN-MxPjGURFgGuSvR1dv-20" value="Повернення даних&amp;nbsp;&lt;div&gt;для перевірки&lt;/div&gt;" style="endArrow=classic;html=1;rounded=0;exitX=0;exitY=0.75;exitDx=0;exitDy=0;entryX=1;entryY=0.75;entryDx=0;entryDy=0;dashed=1;" edge="1" parent="1" source="bN-MxPjGURFgGuSvR1dv-18" target="bN-MxPjGURFgGuSvR1dv-14">
          <mxGeometry width="50" height="50" relative="1" as="geometry">
            <mxPoint x="390" y="210" as="sourcePoint" />
            <mxPoint x="440" y="160" as="targetPoint" />
          </mxGeometry>
        </mxCell>
        <mxCell id="bN-MxPjGURFgGuSvR1dv-21" value="Дані успішні" style="endArrow=classic;html=1;rounded=0;exitX=0;exitY=0.75;exitDx=0;exitDy=0;entryX=1;entryY=0.75;entryDx=0;entryDy=0;dashed=1;" edge="1" parent="1">
          <mxGeometry width="50" height="50" relative="1" as="geometry">
            <mxPoint x="450" y="200" as="sourcePoint" />
            <mxPoint x="310" y="200" as="targetPoint" />
          </mxGeometry>
        </mxCell>
        <mxCell id="bN-MxPjGURFgGuSvR1dv-22" value="Перехід на карту" style="endArrow=classic;html=1;rounded=0;" edge="1" parent="1">
          <mxGeometry width="50" height="50" relative="1" as="geometry">
            <mxPoint x="130" y="309" as="sourcePoint" />
            <mxPoint x="290" y="309" as="targetPoint" />
          </mxGeometry>
        </mxCell>
        <mxCell id="bN-MxPjGURFgGuSvR1dv-23" value="Отримання даних&amp;nbsp;&lt;div&gt;для карти&lt;/div&gt;" style="endArrow=classic;html=1;rounded=0;" edge="1" parent="1">
          <mxGeometry width="50" height="50" relative="1" as="geometry">
            <mxPoint x="310" y="309" as="sourcePoint" />
            <mxPoint x="452.5" y="309" as="targetPoint" />
            <mxPoint as="offset" />
          </mxGeometry>
        </mxCell>
        <mxCell id="bN-MxPjGURFgGuSvR1dv-25" value="" style="endArrow=none;dashed=1;html=1;dashPattern=1 3;strokeWidth=2;rounded=0;entryX=0.5;entryY=1;entryDx=0;entryDy=0;" edge="1" parent="1" target="bN-MxPjGURFgGuSvR1dv-24">
          <mxGeometry width="50" height="50" relative="1" as="geometry">
            <mxPoint x="460" y="560" as="sourcePoint" />
            <mxPoint x="460" y="220" as="targetPoint" />
          </mxGeometry>
        </mxCell>
        <mxCell id="bN-MxPjGURFgGuSvR1dv-24" value="" style="rounded=1;whiteSpace=wrap;html=1;" vertex="1" parent="1">
          <mxGeometry x="450" y="299" width="20" height="80" as="geometry" />
        </mxCell>
        <mxCell id="bN-MxPjGURFgGuSvR1dv-26" value="Витяг&amp;nbsp;&lt;div&gt;координат точок&lt;/div&gt;" style="endArrow=classic;html=1;rounded=0;" edge="1" parent="1">
          <mxGeometry width="50" height="50" relative="1" as="geometry">
            <mxPoint x="477" y="309" as="sourcePoint" />
            <mxPoint x="607" y="309" as="targetPoint" />
            <mxPoint as="offset" />
          </mxGeometry>
        </mxCell>
        <mxCell id="bN-MxPjGURFgGuSvR1dv-28" value="" style="endArrow=none;dashed=1;html=1;dashPattern=1 3;strokeWidth=2;rounded=0;entryX=0.5;entryY=1;entryDx=0;entryDy=0;" edge="1" parent="1" target="bN-MxPjGURFgGuSvR1dv-27">
          <mxGeometry width="50" height="50" relative="1" as="geometry">
            <mxPoint x="621.5" y="556" as="sourcePoint" />
            <mxPoint x="620" y="220" as="targetPoint" />
          </mxGeometry>
        </mxCell>
        <mxCell id="bN-MxPjGURFgGuSvR1dv-27" value="" style="rounded=1;whiteSpace=wrap;html=1;" vertex="1" parent="1">
          <mxGeometry x="610" y="300" width="20" height="79" as="geometry" />
        </mxCell>
        <mxCell id="bN-MxPjGURFgGuSvR1dv-29" value="Повернення даних&amp;nbsp;&lt;div&gt;для побудови&lt;/div&gt;" style="endArrow=classic;html=1;rounded=0;exitX=0;exitY=0.75;exitDx=0;exitDy=0;entryX=1;entryY=0.75;entryDx=0;entryDy=0;dashed=1;" edge="1" parent="1">
          <mxGeometry width="50" height="50" relative="1" as="geometry">
            <mxPoint x="608" y="369" as="sourcePoint" />
            <mxPoint x="468" y="369" as="targetPoint" />
          </mxGeometry>
        </mxCell>
        <mxCell id="bN-MxPjGURFgGuSvR1dv-30" value="Відображення карти" style="endArrow=classic;html=1;rounded=0;exitX=0;exitY=0.75;exitDx=0;exitDy=0;entryX=1;entryY=0.75;entryDx=0;entryDy=0;dashed=1;" edge="1" parent="1">
          <mxGeometry width="50" height="50" relative="1" as="geometry">
            <mxPoint x="449" y="369" as="sourcePoint" />
            <mxPoint x="309" y="369" as="targetPoint" />
          </mxGeometry>
        </mxCell>
        <mxCell id="bN-MxPjGURFgGuSvR1dv-31" value="Натискання на маркекр" style="endArrow=classic;html=1;rounded=0;" edge="1" parent="1">
          <mxGeometry width="50" height="50" relative="1" as="geometry">
            <mxPoint x="130" y="477" as="sourcePoint" />
            <mxPoint x="290" y="477" as="targetPoint" />
          </mxGeometry>
        </mxCell>
        <mxCell id="bN-MxPjGURFgGuSvR1dv-32" value="Запит на&amp;nbsp;&lt;div&gt;розширені дані&lt;/div&gt;" style="endArrow=classic;html=1;rounded=0;" edge="1" parent="1">
          <mxGeometry width="50" height="50" relative="1" as="geometry">
            <mxPoint x="310" y="472" as="sourcePoint" />
            <mxPoint x="452.5" y="472" as="targetPoint" />
            <mxPoint as="offset" />
          </mxGeometry>
        </mxCell>
        <mxCell id="bN-MxPjGURFgGuSvR1dv-33" value="" style="rounded=1;whiteSpace=wrap;html=1;" vertex="1" parent="1">
          <mxGeometry x="450" y="462" width="20" height="80" as="geometry" />
        </mxCell>
        <mxCell id="bN-MxPjGURFgGuSvR1dv-34" value="Витяг&amp;nbsp;&lt;div&gt;додаткових даних&lt;/div&gt;" style="endArrow=classic;html=1;rounded=0;" edge="1" parent="1">
          <mxGeometry width="50" height="50" relative="1" as="geometry">
            <mxPoint x="477" y="472" as="sourcePoint" />
            <mxPoint x="607" y="472" as="targetPoint" />
            <mxPoint as="offset" />
          </mxGeometry>
        </mxCell>
        <mxCell id="bN-MxPjGURFgGuSvR1dv-35" value="" style="rounded=1;whiteSpace=wrap;html=1;" vertex="1" parent="1">
          <mxGeometry x="610" y="463" width="20" height="79" as="geometry" />
        </mxCell>
        <mxCell id="bN-MxPjGURFgGuSvR1dv-36" value="Повернення даних&amp;nbsp;&lt;div&gt;про маркер&lt;/div&gt;" style="endArrow=classic;html=1;rounded=0;exitX=0;exitY=0.75;exitDx=0;exitDy=0;entryX=1;entryY=0.75;entryDx=0;entryDy=0;dashed=1;" edge="1" parent="1">
          <mxGeometry width="50" height="50" relative="1" as="geometry">
            <mxPoint x="608" y="532" as="sourcePoint" />
            <mxPoint x="468" y="532" as="targetPoint" />
            <mxPoint as="offset" />
          </mxGeometry>
        </mxCell>
        <mxCell id="bN-MxPjGURFgGuSvR1dv-37" value="Відображення даних" style="endArrow=classic;html=1;rounded=0;exitX=0;exitY=0.75;exitDx=0;exitDy=0;entryX=1;entryY=0.75;entryDx=0;entryDy=0;dashed=1;" edge="1" parent="1">
          <mxGeometry width="50" height="50" relative="1" as="geometry">
            <mxPoint x="449" y="532" as="sourcePoint" />
            <mxPoint x="309" y="532" as="targetPoint" />
          </mxGeometry>
        </mxCell>
        <mxCell id="Yx5rPOhtdr6v1IMibFze-2" value="" style="endArrow=none;dashed=1;html=1;dashPattern=1 3;strokeWidth=2;rounded=0;entryX=0.5;entryY=1;entryDx=0;entryDy=0;" edge="1" parent="1" target="Yx5rPOhtdr6v1IMibFze-1">
          <mxGeometry width="50" height="50" relative="1" as="geometry">
            <mxPoint x="125" y="560" as="sourcePoint" />
            <mxPoint x="124.5" y="120" as="targetPoint" />
          </mxGeometry>
        </mxCell>
        <mxCell id="Yx5rPOhtdr6v1IMibFze-1" value="" style="rounded=1;whiteSpace=wrap;html=1;" vertex="1" parent="1">
          <mxGeometry x="117.5" y="150" width="15" height="370" as="geometry" />
        </mxCell>
        <mxCell id="Yx5rPOhtdr6v1IMibFze-4" value="" style="endArrow=none;dashed=1;html=1;dashPattern=1 3;strokeWidth=2;rounded=0;entryX=0.5;entryY=1;entryDx=0;entryDy=0;" edge="1" parent="1" target="Yx5rPOhtdr6v1IMibFze-3">
          <mxGeometry width="50" height="50" relative="1" as="geometry">
            <mxPoint x="299.5" y="560" as="sourcePoint" />
            <mxPoint x="300" y="220" as="targetPoint" />
          </mxGeometry>
        </mxCell>
        <mxCell id="Yx5rPOhtdr6v1IMibFze-3" value="" style="rounded=1;whiteSpace=wrap;html=1;" vertex="1" parent="1">
          <mxGeometry x="292.5" y="290" width="15" height="260" as="geometry" />
        </mxCell>
      </root>
    </mxGraphModel>
  </diagram>
</mxfile>
